<svg width="203" height="49" viewBox="0 0 203 49" fill="none" xmlns="http://www.w3.org/2000/svg">
  <path d="M123.846 35.1438C123.846 35.9685 123.673 36.7452 123.325 37.474C122.978 38.1836 122.408 38.8068 121.617 39.3438C120.844 39.8616 119.831 40.274 118.576 40.5808C117.34 40.8877 115.815 41.0411 114 41.0411C112.977 41.0411 111.973 40.9644 110.989 40.811C110.023 40.6575 109.097 40.437 108.209 40.1493C107.34 39.8616 106.529 39.5164 105.776 39.1137C105.043 38.6918 104.405 38.2315 103.865 37.7329L105.313 36.0068C106.413 36.9466 107.697 37.6657 109.164 38.1644C110.632 38.6438 112.244 38.8836 114 38.8836C115.95 38.8836 117.331 38.6151 118.142 38.0781C118.952 37.5411 119.358 36.8027 119.358 35.863C119.358 35.1342 119.039 34.5205 118.402 34.0219C117.765 33.5233 116.684 33.0342 115.159 32.5548L109.657 30.8288C107.842 30.2534 106.471 29.5247 105.545 28.6425C104.618 27.7411 104.155 26.6 104.155 25.2192C104.155 24.5096 104.319 23.8288 104.647 23.1767C104.994 22.5055 105.525 21.9205 106.24 21.4219C106.954 20.9041 107.861 20.5014 108.962 20.2137C110.081 19.9068 111.423 19.7534 112.987 19.7534C113.933 19.7534 114.869 19.8301 115.796 19.9836C116.742 20.137 117.64 20.3575 118.489 20.6452C119.358 20.9329 120.159 21.2877 120.893 21.7096C121.646 22.1123 122.292 22.563 122.833 23.0616L121.385 24.7877C120.284 23.8479 119.049 23.1383 117.678 22.6589C116.307 22.1603 114.744 21.911 112.987 21.911C111.539 21.911 110.448 22.1603 109.715 22.6589C109 23.1575 108.643 23.7712 108.643 24.5C108.643 24.9027 108.711 25.2575 108.846 25.5644C108.981 25.852 109.203 26.1301 109.512 26.3986C109.84 26.6479 110.265 26.8877 110.786 27.1178C111.307 27.3288 111.954 27.5589 112.726 27.8082L118.199 29.5342C119.956 30.0904 121.337 30.8192 122.341 31.7205C123.344 32.6219 123.846 33.763 123.846 35.1438ZM143.552 21.7671L148.069 37.7329H148.359L153.253 20.3288H157.452L151.805 40.4657H145.579L141.235 25.0753H140.945L136.602 40.4657H130.376L124.729 20.3288H128.928L133.822 37.7329H134.111L138.629 21.7671H143.552ZM163.689 33.4178H172.666L168.322 22.774H168.032L163.689 33.4178ZM171.507 20.3288L179.761 40.4657H175.591L173.679 35.5753H162.675L160.764 40.4657H156.594L164.847 20.3288H171.507ZM192.511 20.3288C193.959 20.3288 195.253 20.4918 196.392 20.8178C197.55 21.1247 198.525 21.5849 199.316 22.1986C200.108 22.7931 200.716 23.5315 201.141 24.4137C201.566 25.2767 201.778 26.2644 201.778 27.3767C201.778 28.489 201.566 29.4863 201.141 30.3685C200.716 31.2315 200.108 31.9699 199.316 32.5836C198.525 33.1781 197.55 33.6383 196.392 33.9644C195.253 34.2712 193.959 34.4246 192.511 34.4246H186.285V40.4657H182.086V20.3288H192.511ZM186.285 22.4863V32.2671H192.511C194.036 32.2671 195.214 31.874 196.044 31.0877C196.894 30.2822 197.318 29.0452 197.318 27.3767C197.318 25.7082 196.894 24.4808 196.044 23.6945C195.214 22.889 194.036 22.4863 192.511 22.4863H186.285Z" fill="white"/>
  <path d="M15.7825 24.1644H16.072L23.6013 6.90408H29.8274V27.0411H25.6284V10.9315H25.3388L18.3887 27.0411H13.4658L6.51569 10.9315H6.2261V27.0411H2.0271V6.90408H8.25321L15.7825 24.1644ZM44.2954 25.6027C45.2414 25.6027 46.0908 25.4781 46.8438 25.2287C47.616 24.9602 48.2724 24.5575 48.813 24.0205C49.3535 23.4644 49.7686 22.7644 50.0582 21.9205C50.3671 21.0575 50.5215 20.0315 50.5215 18.8424V6.90408H54.7205V18.8424C54.7205 21.7959 53.8131 24.0013 51.9984 25.4589C50.1837 26.8972 47.616 27.6164 44.2954 27.6164C40.9555 27.6164 38.3782 26.8972 36.5635 25.4589C34.768 24.0013 33.8703 21.7959 33.8703 18.8424V6.90408H38.0693V18.8424C38.0693 20.0315 38.2141 21.0575 38.5037 21.9205C38.8126 22.7644 39.2373 23.4644 39.7779 24.0205C40.3184 24.5575 40.9652 24.9602 41.7181 25.2287C42.4903 25.4781 43.3494 25.6027 44.2954 25.6027ZM77.608 21.7191C77.608 22.5438 77.4342 23.3205 77.0867 24.0493C76.7392 24.7589 76.1697 25.3822 75.3782 25.9191C74.6059 26.437 73.5924 26.8493 72.3375 27.1561C71.1019 27.463 69.5768 27.6164 67.762 27.6164C66.7388 27.6164 65.7349 27.5397 64.7503 27.3863C63.7851 27.2328 62.8584 27.0123 61.9703 26.7246C61.1016 26.437 60.2907 26.0918 59.5378 25.689C58.8042 25.2671 58.1671 24.8068 57.6265 24.3082L59.0744 22.5822C60.1749 23.5219 61.4587 24.2411 62.926 24.7397C64.3932 25.2191 66.0052 25.4589 67.762 25.4589C69.7119 25.4589 71.0923 25.1904 71.9031 24.6534C72.714 24.1164 73.1194 23.3781 73.1194 22.4383C73.1194 21.7096 72.8008 21.0959 72.1638 20.5972C71.5267 20.0986 70.4455 19.6096 68.9204 19.1301L63.4182 17.4041C61.6035 16.8287 60.2328 16.1 59.3061 15.2178C58.3794 14.3164 57.9161 13.1753 57.9161 11.7945C57.9161 11.0849 58.0802 10.4041 58.4084 9.75202C58.7559 9.08079 59.2868 8.49586 60.0011 7.99723C60.7154 7.47942 61.6228 7.07668 62.7232 6.78901C63.843 6.48216 65.1847 6.32874 66.7485 6.32874C67.6945 6.32874 68.6308 6.40545 69.5575 6.55887C70.5035 6.7123 71.4012 6.93285 72.2506 7.22052C73.1194 7.50819 73.9206 7.86298 74.6542 8.2849C75.4071 8.68764 76.0539 9.13832 76.5944 9.63696L75.1465 11.363C74.0461 10.4233 72.8105 9.71367 71.4398 9.23422C70.0691 8.73559 68.5053 8.48627 66.7485 8.48627C65.3006 8.48627 64.2098 8.73559 63.4762 9.23422C62.7619 9.73285 62.4047 10.3465 62.4047 11.0753C62.4047 11.4781 62.4723 11.8328 62.6074 12.1397C62.7425 12.4274 62.9646 12.7054 63.2735 12.9739C63.6016 13.2233 64.0264 13.463 64.5476 13.6931C65.0689 13.9041 65.7156 14.1342 66.4879 14.3835L71.961 16.1096C73.7179 16.6657 75.0982 17.3945 76.1021 18.2959C77.106 19.1972 77.608 20.3383 77.608 21.7191ZM84.7028 27.0411H80.5038V6.90408H84.7028V27.0411Z" fill="white"/>
  <path d="M80.2042 48.1372C84.6762 48.1372 88.3014 45.5638 88.3014 42.3893C88.3014 39.2148 84.6762 36.6414 80.2042 36.6414C75.7322 36.6414 72.107 39.2148 72.107 42.3893C72.107 45.5638 75.7322 48.1372 80.2042 48.1372Z" fill="white"/>
  <path d="M95.019 4.62922L98.4178 3.12781L88.4584 42.052L84.5013 44.1119L95.019 4.62922Z" fill="white"/>
  <path d="M110.189 9.53674e-06C105.717 9.53674e-06 102.091 2.57344 102.091 5.74793C102.091 8.92242 105.717 11.4958 110.189 11.4958C114.661 11.4958 118.286 8.92242 118.286 5.74793C118.286 2.57344 114.661 9.53674e-06 110.189 9.53674e-06Z" fill="white"/>
  <path d="M95.3737 43.5079L91.9747 45.0093L101.934 6.08508L105.891 4.02515L95.3737 43.5079Z" fill="white"/>
</svg>
